<svg xmlns="http://www.w3.org/2000/svg" preserveAspectRatio="xMidYMid meet" data-bbox="1.014 7.087 172.966 38.248" viewBox="1.014 7.087 172.966 38.248" data-type="color" aria-hidden="true"><g><path d="M39.27 23.17c-.29-1.77-.8-3.47-1.59-5.09-.97-1.99-2.18-3.79-3.76-5.34-1.07-1.05-2.22-2-3.5-2.77-1.16-.7-2.37-1.3-3.65-1.75-1.36-.48-2.76-.81-4.2-.99-.71-.09-1.43-.12-2.14-.14-1.03-.02-2.05.07-3.07.22-1.73.26-3.39.76-5 1.46-1.31.57-2.52 1.31-3.67 2.15-1.34.98-2.5 2.16-3.55 3.44-.43.53-.82 1.09-1.19 1.67-1.09 1.73-1.86 3.6-2.38 5.56a16.36 16.36 0 0 0-.52 3.34c-.06 1.09-.05 2.17.07 3.23.11.97.28 1.93.54 2.88.73 2.66 1.91 5.08 3.68 7.21 1.06 1.28 2.24 2.43 3.59 3.4 1.14.81 2.33 1.52 3.62 2.07 1.18.5 2.39.91 3.65 1.18 1.2.25 2.41.4 3.63.43 1.19.03 2.36-.06 3.54-.24 1.24-.19 2.44-.52 3.62-.95 1.29-.47 2.51-1.09 3.67-1.82 1.32-.82 2.49-1.82 3.57-2.92 1.49-1.53 2.66-3.29 3.56-5.22 1.04-2.21 1.59-4.54 1.72-6.98.06-1.35-.01-2.7-.24-4.03zm-5.17-5.85c-.02.02-.05.04-.07.07-1.13 1.14-2.25 2.29-3.4 3.42-1.23 1.21-2.43 2.46-3.67 3.67-1.21 1.19-2.39 2.41-3.6 3.6-.37.36-.73.73-1.1 1.09-.06.06-.09.12-.09.21v10.54c0 .06-.02.09-.06.13-.77.77-1.53 1.55-2.31 2.3-.44.43-.87.86-1.31 1.29-.04.04-.08.07-.13.11-.03-.11-.02-.22-.02-.32.01-3.87.01-7.75.02-11.62 0-.83 0-1.66.01-2.49 0-.08-.02-.14-.08-.2-.72-.72-1.43-1.44-2.16-2.15-1.21-1.16-2.37-2.37-3.58-3.54-1.23-1.19-2.42-2.42-3.65-3.6-1.06-1.02-2.09-2.08-3.14-3.11-.04-.04-.08-.09-.13-.15h29.21c-.26.27-.48.53-.74.75z" fill="#2a3450" data-color="1"></path><path d="M12.52 20.84c1.23 1.19 2.43 2.42 3.67 3.62 1.14 1.11 2.26 2.24 3.39 3.36.09.09.12.18.12.3v12.41l.03.02c.03-.03.05-.07.08-.1.32-.34.65-.67.99-.99.07-.06.09-.13.09-.22V28.03c0-.09.02-.15.08-.21.8-.79 1.59-1.6 2.4-2.38 1.21-1.18 2.39-2.4 3.6-3.58 1.08-1.06 2.14-2.14 3.21-3.22.02-.02.06-.04.06-.1H10.2c-.01.01-.01.02-.02.03l.11.08c.75.72 1.48 1.47 2.23 2.19zm4.19-1.29c.92 0 1.83 0 2.75.01h4.41c.1 0 .12.03.12.13 0 .37-.01.74 0 1.11 0 .1-.03.13-.13.13-.92 0-1.85 0-2.77-.01-.09 0-.12.02-.12.11.01.47 0 .94 0 1.41 0 .08.02.11.1.11.72 0 1.44 0 2.16-.01.12 0 .15.03.15.15-.01.16-.01.33 0 .49 0 .1-.02.13-.12.13-.72 0-1.43 0-2.15-.01-.1 0-.14.02-.14.13.01.72 0 1.43.01 2.15 0 .08-.02.12-.11.12-.39 0-.77 0-1.16.01-.09 0-.12-.03-.12-.11v-4.52c0-.19.02-.17-.16-.17h-2.7c-.09 0-.12-.02-.12-.12v-1.14c-.02-.07.01-.1.1-.1z" fill="#2a3450" data-color="1"></path><path fill="#2a3450" d="M59.26 17.67h-8.38v5.78h8.08v3.41h-8.08v11.45h-3.63V14.26h12.01v3.41z" data-color="1"></path><path fill="#2a3450" d="M68.32 27.92l-7.85-13.66h4.18l5.5 9.61 5.51-9.61h4.18l-7.89 13.66v10.39h-3.63V27.92z" data-color="1"></path><path fill="#2a3450" d="M86.24 14.26V34.9h7.07v3.41h-10.7V14.26h3.63z" data-color="1"></path><path fill="#2a3450" d="M101.83 17.67v20.64H98.2V17.67h-5.53v-3.41h14.68v3.41h-5.52z" data-color="1"></path><path d="M114.21 14.26v14.49c0 2.07.34 3.58 1.01 4.53 1.01 1.38 2.42 2.07 4.25 2.07 1.84 0 3.26-.69 4.27-2.07.67-.92 1.01-2.44 1.01-4.53V14.26h3.63v15.48c0 2.53-.79 4.62-2.37 6.26-1.78 1.83-3.96 2.74-6.54 2.74-2.59 0-4.76-.91-6.53-2.74-1.58-1.64-2.37-3.73-2.37-6.26V14.26h3.64z" fill="#2a3450" data-color="1"></path><path d="M142.3 28.06l7.45 10.25h-4.44l-6.87-9.84h-.65v9.84h-3.63V14.26h4.25c3.18 0 5.47.6 6.89 1.79 1.56 1.33 2.34 3.08 2.34 5.27 0 1.7-.49 3.17-1.46 4.39-.99 1.22-2.28 2-3.88 2.35m-4.52-2.76h1.15c3.44 0 5.16-1.31 5.16-3.94 0-2.46-1.67-3.69-5.02-3.69h-1.29v7.63z" fill="#2a3450" data-color="1"></path><path d="M167.49 32.47h-10.3l-2.68 5.84h-3.91l11.9-25.56 11.48 25.56h-3.97l-2.52-5.84zm-1.48-3.42l-3.57-8.18-3.74 8.18h7.31z" fill="#2a3450" data-color="1"></path></g></svg>